<svg xmlns="http://www.w3.org/2000/svg" viewBox="0 0 703.1 762.6"><path d="M701 126.2c18.2 48.4-79.3 166.2-172.2 196.4-168.1-58.2-173.6 39.6-311.2 132.5 162.6 112.4 333 24.8 329.8-85.8-128 73.3-208.1 81.3-254.2 79 155-30.6 322-125.7 357.1-165.7v5.4c0 191-295.2 474.6-295.2 474.6S200.7 614.6 115.2 460c-11.9-.2-83.8 26-110.3-9-29.6-39.2 80.2-170.2 175.4-209.4 170.4 77.4 263.7-123 317-134.2C338.3 13.3 181.2 52 163.4 192c88.4-50.2 196.8-78.7 246.9-76.5-140.7 28.8-302 133-350.3 172.5C60 129 192.2 0 355.2 0c96.4 0 182 45 235.9 114.8 0 0 96.2-31.3 109.8 11.4zm-33.8 14.2c-12.6-17.2-56.7 2.9-56.7 2.9a283.3 283.3 0 0129 67s45-46.4 27.7-70zM37.7 434.8c13.6 18.6 61.3-3.1 61.3-3.1a305.5 305.5 0 01-31.4-72.5s-48.7 50.1-30 75.6z" fill="#fff"/></svg>