<?xml version="1.0" encoding="UTF-8" standalone="no"?>
<svg
   height="32"
   version="1.1"
   viewBox="0 0 32 32"
   width="32"
   xml:space="preserve"
   id="svg379"
   sodipodi:docname="amex.svg"
   inkscape:version="1.2 (dc2aeda, 2022-05-15)"
   xmlns:inkscape="http://www.inkscape.org/namespaces/inkscape"
   xmlns:sodipodi="http://sodipodi.sourceforge.net/DTD/sodipodi-0.dtd"
   xmlns="http://www.w3.org/2000/svg"
   xmlns:svg="http://www.w3.org/2000/svg">
  <defs
   id="defs383" />
  <sodipodi:namedview
   id="namedview381"
   pagecolor="#ffffff"
   bordercolor="#999999"
   borderopacity="1"
   inkscape:showpageshadow="0"
   inkscape:pageopacity="0"
   inkscape:pagecheckerboard="0"
   inkscape:deskcolor="#d1d1d1"
   showgrid="false"
   inkscape:zoom="4.7686311"
   inkscape:cx="10.380337"
   inkscape:cy="23.906232"
   inkscape:window-width="1309"
   inkscape:window-height="456"
   inkscape:window-x="1440"
   inkscape:window-y="25"
   inkscape:window-maximized="0"
   inkscape:current-layer="svg379" />
  <g
   id="g400"
   transform="matrix(0.06389193,0,0,0.06389193,-0.35633408,-0.35633408)">
    <g
   id="_x31_6-amex_x2C__Credit_card">
      <g
   id="g375">
        <g
   id="g373">
          <path
   d="m 432.121,329.196 v -3.595 c -8.621,4.47 -3.114,3.595 -125.077,3.595 0,-20.117 0.081,-19.078 0,-20.117 C 305.688,309 304.49,309 299.54,309 c 0,14.287 -0.078,5.428 -0.078,20.196 h -31.608 c 0,-9.66 0.08,-12.213 0.08,-23.31 -7.982,4.79 -18.199,5.109 -27.379,4.949 0,11.732 -0.08,6.626 -0.08,18.36 h -39.03 c -4.071,-4.553 -2.156,-2.478 -12.292,-13.891 -2.556,2.794 -10.218,11.097 -12.852,13.891 H 110.85 V 255.52 h 66.329 c 3.991,4.471 2.235,2.475 12.371,13.728 2.555,-2.792 9.738,-10.696 12.533,-13.728 h 46.295 c 7.821,0 14.368,1.518 19.396,4.471 v -4.471 c 43.342,0 51.324,-1.118 60.424,4.07 v -4.07 h 62.419 v 4.15 c 9.099,-5.508 15.644,-4.15 51.802,-4.15 v 3.991 c 8.222,-4.71 13.249,-4.15 43.343,-3.991 V 115.519 c 0,-21.152 -17.161,-38.314 -38.315,-38.314 H 64.314 c -21.152,0 -38.313,17.162 -38.313,38.314 v 87.641 c 7.504,-17.48 15.725,-36.716 18.438,-43.021 h 31.689 c 3.433,8.061 1.276,2.952 7.184,16.841 v -16.841 h 36.717 c 2.314,4.947 8.86,19.155 11.095,23.945 4.629,-10.856 8.063,-19.078 10.058,-23.945 h 82.213 c 0,-0.081 9.18,0 9.26,0 34.88,0.158 42.782,-0.64 51.402,4.229 v -4.229 h 31.85 v 7.422 c 6.065,-4.869 14.288,-7.422 24.503,-7.422 h 22.03 c 0,0.399 1.519,0.239 1.837,0.239 h 25.86 c 3.354,7.821 2.076,4.788 7.023,16.442 v -16.442 h 34.563 c 3.911,6.385 -0.798,-1.437 8.938,14.686 v -14.686 h 31.849 v 73.434 h -33.204 c -4.312,-7.185 -1.118,-1.757 -10.536,-17.48 v 17.48 h -42.146 c -5.107,-11.814 -0.081,-0.24 -5.268,-12.213 h -15.167 c -3.351,7.981 -1.755,4.151 -5.107,12.213 h -21.393 c -9.815,0 -17.799,-2.395 -23.705,-7.104 v 7.104 h -53.079 c -0.24,-11.095 -0.081,-19.796 -0.081,-19.796 -1.437,-0.239 -2.715,-0.159 -7.822,-0.159 v 20.034 H 146.848 v -9.1 c -1.996,4.47 -2.155,4.71 -4.071,9.1 H 119.23 c -3.193,-7.104 -2.314,-5.108 -4.07,-9.1 v 9.1 H 72.935 c -3.353,-8.062 -1.756,-4.23 -5.108,-12.212 H 52.501 c -3.352,7.981 -1.755,4.15 -5.108,12.212 H 26.16 V 396.48 c 0,21.155 17.162,38.315 38.314,38.315 h 383.212 c 21.15,0 38.313,-17.16 38.313,-38.315 v -72.154 c -10.137,6.624 -26.102,4.87 -53.878,4.87 z"
   style="fill:#016fd0"
   id="path351" />
          <rect
   height="55.313"
   style="fill:#016fd0"
   width="13.489"
   x="293.23499"
   y="170.754"
   id="rect353" />
          <path
   d="m 285.652,185.599 c 0,-13.09 -11.254,-14.685 -21.87,-14.685 l -31.209,-0.241 v 55.314 h 13.09 v -20.034 h 14.368 c 14.687,0 11.573,8.222 11.813,20.034 h 13.251 v -10.776 c 0,-7.342 -1.198,-12.052 -8.781,-14.685 5.908,-2.395 9.418,-8.541 9.338,-14.927 z m -23.465,9.02 h -16.523 v -12.213 h 16.763 c 4.071,0 8.539,0.799 8.539,5.906 -0.001,5.269 -4.232,6.307 -8.779,6.307 z"
   style="fill:#016fd0"
   id="path355" />
          <polygon
   points="223.474,170.754 179.175,170.754 179.175,226.067 223.474,226.067 223.474,214.653 192.424,214.653 192.424,203.639 222.596,203.639 222.596,192.384 192.424,192.384 192.424,182.406 223.474,182.406 "
   style="fill:#016fd0"
   id="polygon357" />
          <path
   d="M 169.357,226.067 V 170.754 H 147.326 L 131.602,208.268 114.28,170.754 H 92.65 v 52.439 L 70.221,170.754 H 50.665 l -23.707,55.313 h 14.289 l 5.107,-12.212 H 73.892 L 79,226.067 h 26.979 v -43.262 l 19.156,43.262 h 11.654 l 19.156,-43.262 v 43.262 z m -118.294,-23.706 8.94,-22.03 9.18,22.03 z"
   style="fill:#016fd0"
   id="path359" />
          <path
   d="m 248.856,266.058 h -42.064 l -16.763,18.197 -16.363,-18.197 h -53.078 l -0.081,55.313 h 52.203 l 17,-18.357 16.283,18.357 h 25.702 l 0.079,-18.596 c 15.086,0 39.352,3.67 39.352,-18.598 0,-13.81 -9.818,-18.119 -22.27,-18.119 z m -82.852,43.66 h -32.407 v -11.015 h 28.975 V 287.45 h -28.975 v -9.979 h 33.285 l 14.288,16.125 z m 52.52,6.546 -20.193,-22.429 20.193,-21.871 z m 30.173,-24.743 h -16.923 v -14.05 h 17.161 c 4.471,0 8.143,1.836 8.143,6.707 0,5.106 -3.672,7.343 -8.381,7.343 z"
   style="fill:#016fd0"
   id="path361" />
          <path
   d="m 313.191,198.85 c 0,17.719 8.141,27.138 26.339,27.138 h 15.328 l 5.105,-12.212 h 27.379 l 5.267,12.212 h 26.901 v -41.426 l 24.902,41.426 h 18.839 V 170.915 H 449.76 v 38.393 l -23.228,-38.393 h -20.194 v 52.2 l -22.268,-52.2 h -19.796 l -18.758,43.5 h -5.906 c -10.617,0 -12.851,-6.466 -12.851,-15.884 0,-18.997 12.531,-15.964 26.419,-15.725 v -12.133 h -12.852 c -18.754,0 -27.135,9.578 -27.135,28.177 z m 60.743,-18.519 8.938,22.03 h -18.198 z"
   style="fill:#016fd0"
   id="path363" />
          <path
   d="m 415.597,309.479 h -25.699 l -0.081,11.813 h 25.703 c 11.813,0 20.912,-4.47 20.912,-17.559 0,-26.501 -34.241,-8.94 -34.241,-20.995 0,-4.468 3.91,-5.106 7.342,-5.106 h 24.266 v -11.655 h -26.5 c -10.217,0 -18.758,5.27 -18.758,16.522 0,26.341 34.081,9.979 34.081,21.872 -0.078,4.311 -3.752,5.108 -7.025,5.108 z"
   style="fill:#016fd0"
   id="path365" />
          <path
   d="m 330.591,280.984 c 0,-13.091 -11.254,-14.927 -21.63,-14.927 h -31.45 l -0.078,55.313 h 13.25 l 0.077,-20.192 h 14.05 c 8.78,0 11.813,1.597 11.813,11.015 l -0.08,9.178 h 13.25 l 0.081,-11.014 c 0,-7.104 -1.438,-12.053 -8.782,-14.687 6.147,-2.475 9.421,-8.62 9.499,-14.686 z m -23.307,8.939 H 290.76 v -12.452 h 16.764 c 4.071,0 8.541,0.8 8.541,5.907 -10e-4,5.508 -4.31,6.545 -8.781,6.545 z"
   style="fill:#016fd0"
   id="path367" />
          <polygon
   points="381.915,266.058 337.854,266.058 337.775,321.371 381.836,321.371 381.915,309.957 351.104,309.718 351.104,298.703 381.356,298.703 381.356,287.45 351.185,287.45 351.185,277.471 381.915,277.471 "
   style="fill:#016fd0"
   id="polygon369" />
          <path
   d="m 461.097,277.711 h 24.025 V 266.058 H 458.86 c -10.217,0 -18.996,5.268 -18.996,16.523 0,26.34 34.082,10.218 34.082,21.87 0,4.07 -3.432,5.108 -6.704,5.108 H 441.7 l -0.08,11.812 h 25.542 c 6.705,0 14.049,-1.438 17.96,-7.103 v -20.595 c -8.383,-11.014 -31.369,-1.037 -31.369,-10.774 0,-4.628 3.67,-5.188 7.344,-5.188 z"
   style="fill:#016fd0"
   id="path371" />
        </g>
      </g>
    </g>
    <g
   id="Layer_1" />
  </g>
</svg>
