<?xml version="1.0" encoding="UTF-8" standalone="no"?>
<svg
   width="32"
   height="32"
   fill="currentColor"
   class="bi bi-bank"
   viewBox="0 0 32 32"
   version="1.1"
   id="svg576"
   sodipodi:docname="bank.svg"
   inkscape:version="1.2 (dc2aeda, 2022-05-15)"
   xmlns:inkscape="http://www.inkscape.org/namespaces/inkscape"
   xmlns:sodipodi="http://sodipodi.sourceforge.net/DTD/sodipodi-0.dtd"
   xmlns="http://www.w3.org/2000/svg"
   xmlns:svg="http://www.w3.org/2000/svg">
  <defs
     id="defs580" />
  <sodipodi:namedview
     id="namedview578"
     pagecolor="#ffffff"
     bordercolor="#999999"
     borderopacity="1"
     inkscape:showpageshadow="0"
     inkscape:pageopacity="0"
     inkscape:pagecheckerboard="0"
     inkscape:deskcolor="#d1d1d1"
     showgrid="false"
     inkscape:zoom="14.75"
     inkscape:cx="-2.0677966"
     inkscape:cy="8"
     inkscape:window-width="1309"
     inkscape:window-height="456"
     inkscape:window-x="1440"
     inkscape:window-y="25"
     inkscape:window-maximized="0"
     inkscape:current-layer="svg576" />
  <path
     d="m 16,0 13.178816,6.0809969 h 1.774455 a 0.99688474,0.99688474 0 0 1 0.996885,0.9968847 v 3.9875394 a 0.99688474,0.99688474 0 0 1 -0.996885,0.996884 h -0.996885 v 13.956387 a 0.99688474,0.99688474 0 0 1 0.966978,0.755638 l 0.996885,3.987539 A 0.99688474,0.99688474 0 0 1 30.953271,32 H 1.0467287 A 0.99688474,0.99688474 0 0 1 0.07975054,30.761869 L 1.0766353,26.77433 A 0.99688474,0.99688474 0 0 1 2.0436135,26.018692 V 12.062305 H 1.0467287 A 0.99688474,0.99688474 0 0 1 0.049844,11.065421 V 7.0778816 A 0.99688474,0.99688474 0 0 1 1.0467287,6.0809969 H 2.8211836 Z M 7.5783175,6.0809969 H 24.419688 L 16,2.1931464 Z M 4.0373829,12.062305 V 26.018692 H 6.0311524 V 12.062305 Z m 3.987539,0 V 26.018692 H 13.009346 V 12.062305 Z m 6.9781931,0 v 13.956387 h 1.993769 V 12.062305 Z m 3.987539,0 v 13.956387 h 4.984424 V 12.062305 Z m 6.978193,0 v 13.956387 h 1.99377 V 12.062305 Z m 3.987539,-1.993769 V 8.0747664 H 2.0436135 v 1.9937696 z m -0.77757,17.943925 H 2.8211836 l -0.4984424,1.99377 H 29.677258 Z"
     id="path574"
     style="stroke-width:1.99377" />
</svg>
