<?xml version="1.0" encoding="UTF-8" standalone="no"?>
<svg
   version="1.1"
   id="Layer_1"
   x="0px"
   y="0px"
   viewBox="0 0 32.000001 32"
   xml:space="preserve"
   sodipodi:docname="bank.svg"
   width="32"
   height="32"
   inkscape:version="1.2 (dc2aeda, 2022-05-15)"
   xmlns:inkscape="http://www.inkscape.org/namespaces/inkscape"
   xmlns:sodipodi="http://sodipodi.sourceforge.net/DTD/sodipodi-0.dtd"
   xmlns="http://www.w3.org/2000/svg"
   xmlns:svg="http://www.w3.org/2000/svg"><defs
     id="defs204" /><sodipodi:namedview
     id="namedview202"
     pagecolor="#ffffff"
     bordercolor="#999999"
     borderopacity="1"
     inkscape:showpageshadow="0"
     inkscape:pageopacity="0"
     inkscape:pagecheckerboard="0"
     inkscape:deskcolor="#d1d1d1"
     showgrid="false"
     showguides="false"
     inkscape:zoom="5.5558672"
     inkscape:cx="52.737041"
     inkscape:cy="18.628955"
     inkscape:window-width="1440"
     inkscape:window-height="847"
     inkscape:window-x="0"
     inkscape:window-y="25"
     inkscape:window-maximized="1"
     inkscape:current-layer="Layer_1" /><style
     type="text/css"
     id="style195">.st0{fill-rule:evenodd;clip-rule:evenodd;}</style><g
     id="g199"
     transform="matrix(0.26043786,0,0,0.26043786,7.0899999e-8,3.6760805)"><path
       class="st0"
       d="M 0,29.94 28.91,9.43 57.97,29.94 Z m 25.7,46.19 18.46,-4.73 -3.47,5.79 c 6.37,5.86 13.11,7.64 20.79,4.72 -7.57,10.93 -18.63,11.76 -27.71,6.83 l -3.54,5.9 z M 64.9,47.08 93.81,26.57 122.87,47.08 Z m 1.76,33.53 v -6.72 h 1.99 l 1.9,-1.49 V 54.53 h -3.88 v -4.28 h 54.29 v 4.28 h -3.87 V 72.4 l 1.9,1.49 h 2.03 v 6.72 z m 12.93,-6.73 h 2.19 l 1.9,-1.49 V 54.53 H 77.7 V 72.4 Z m 13.13,0 h 2.19 l 1.9,-1.49 V 54.53 H 90.83 V 72.4 Z m 13.13,0 h 2.19 l 1.9,-1.49 V 54.53 h -5.98 V 72.4 Z M 85.98,18.71 67.3,22.53 71.05,16.92 C 64.97,10.75 58.33,8.64 50.52,11.18 58.62,0.64 69.71,0.35 78.53,5.73 L 82.35,0 Z M 1.76,63.47 v -6.72 h 1.99 l 1.9,-1.49 V 37.39 H 1.77 v -4.28 h 54.29 v 4.28 h -3.87 v 17.86 l 1.9,1.49 h 2.03 v 6.72 H 1.76 Z m 12.93,-6.73 h 2.19 l 1.9,-1.49 V 37.39 H 12.8 v 17.86 z m 13.13,0 h 2.19 l 1.9,-1.49 V 37.39 h -5.98 v 17.86 z m 13.13,0 h 2.19 l 1.9,-1.49 V 37.39 h -5.98 v 17.86 z"
       id="path197" /></g></svg>
