<?xml version="1.0" encoding="UTF-8" standalone="no"?>
<svg
   height="32"
   id="svg2"
   preserveAspectRatio="xMidYMid"
   version="1.1"
   viewBox="0 0 0.0625 0.0625"
   width="32"
   sodipodi:docname="bitcoin.svg"
   inkscape:version="1.2 (dc2aeda, 2022-05-15)"
   xmlns:inkscape="http://www.inkscape.org/namespaces/inkscape"
   xmlns:sodipodi="http://sodipodi.sourceforge.net/DTD/sodipodi-0.dtd"
   xmlns="http://www.w3.org/2000/svg"
   xmlns:svg="http://www.w3.org/2000/svg">
  <sodipodi:namedview
     id="namedview177"
     pagecolor="#ffffff"
     bordercolor="#999999"
     borderopacity="1"
     inkscape:showpageshadow="0"
     inkscape:pageopacity="0"
     inkscape:pagecheckerboard="0"
     inkscape:deskcolor="#d1d1d1"
     showgrid="false"
     inkscape:zoom="3.368289"
     inkscape:cx="58.931998"
     inkscape:cy="59.674214"
     inkscape:window-width="1309"
     inkscape:window-height="456"
     inkscape:window-x="1440"
     inkscape:window-y="25"
     inkscape:window-maximized="0"
     inkscape:current-layer="svg2" />
  <defs
     id="defs4">
    <filter
       color-interpolation-filters="sRGB"
       id="_drop-shadow">
      <feGaussianBlur
         id="feGaussianBlur7"
         in="SourceAlpha"
         result="blur-out"
         stdDeviation="1" />
      <feBlend
         id="feBlend9"
         in="SourceGraphic"
         in2="blur-out"
         mode="normal" />
    </filter>
    <linearGradient
       id="coin-gradient"
       x1="0.0004394635"
       x2="0.0004394635"
       y1="-0.00059563987"
       y2="63.996323"
       gradientTransform="scale(0.99994167,1.0000583)"
       gradientUnits="userSpaceOnUse">
      <stop
         id="stop12"
         offset="0%"
         style="stop-color:#f9aa4b" />
      <stop
         id="stop14"
         offset="100%"
         style="stop-color:#f7931a" />
    </linearGradient>
  </defs>
  <g
     id="g16"
     transform="matrix(9.7666652e-4,0,0,9.7655259e-4,6.4370322e-6,-8.7257081e-6)">
    <path
       d="M 63.0359,39.741 C 58.7619,56.884 41.3989,67.317 24.2539,63.042 7.1159,58.768 -3.3171,41.404 0.9589,24.262 5.2309,7.117 22.5939,-3.317 39.7339,0.957 c 17.144,4.274 27.576,21.64 23.302,38.784 z"
       id="coin"
       style="fill:url(#coin-gradient)" />
    <path
       d="m 46.1009,27.441 c 0.637,-4.258 -2.605,-6.547 -7.038,-8.074 l 1.438,-5.768 -3.511,-0.875 -1.4,5.616 c -0.923,-0.23 -1.871,-0.447 -2.813,-0.662 l 1.41,-5.653 -3.509,-0.875 -1.439,5.766 c -0.764,-0.174 -1.514,-0.346 -2.242,-0.527 l 0.004,-0.018 -4.842,-1.209 -0.934,3.75 c 0,0 2.605,0.597 2.55,0.634 1.422,0.355 1.679,1.296 1.636,2.042 l -1.638,6.571 c 0.098,0.025 0.225,0.061 0.365,0.117 -0.117,-0.029 -0.242,-0.061 -0.371,-0.092 l -2.296,9.205 c -0.174,0.432 -0.615,1.08 -1.609,0.834 0.035,0.051 -2.552,-0.637 -2.552,-0.637 l -1.743,4.019 4.569,1.139 c 0.85,0.213 1.683,0.436 2.503,0.646 l -1.453,5.834 3.507,0.875 1.439,-5.772 c 0.958,0.26 1.888,0.5 2.798,0.726 l -1.434,5.745 3.511,0.875 1.453,-5.823 c 5.987,1.133 10.489,0.676 12.384,-4.739 1.527,-4.36 -0.076,-6.875 -3.226,-8.515 2.294,-0.529 4.022,-2.038 4.483,-5.155 z m -8.022,11.249 c -1.085,4.36 -8.426,2.003 -10.806,1.412 l 1.928,-7.729 c 2.38,0.594 10.012,1.77 8.878,6.317 z m 1.086,-11.312 c -0.99,3.966 -7.1,1.951 -9.082,1.457 l 1.748,-7.01 c 1.982,0.494 8.365,1.416 7.334,5.553 z"
       id="symbol"
       style="fill:#ffffff" />
  </g>
</svg>
