<?xml version="1.0" encoding="UTF-8" standalone="no"?>
<svg
   height="32"
   width="32"
   viewBox="0 0 32 32"
   version="1.1"
   id="svg1840"
   sodipodi:docname="eps.svg"
   inkscape:version="1.2 (dc2aeda, 2022-05-15)"
   xmlns:inkscape="http://www.inkscape.org/namespaces/inkscape"
   xmlns:sodipodi="http://sodipodi.sourceforge.net/DTD/sodipodi-0.dtd"
   xmlns="http://www.w3.org/2000/svg"
   xmlns:svg="http://www.w3.org/2000/svg">
  <defs
     id="defs1844" />
  <sodipodi:namedview
     id="namedview1842"
     pagecolor="#ffffff"
     bordercolor="#999999"
     borderopacity="1"
     inkscape:showpageshadow="0"
     inkscape:pageopacity="0"
     inkscape:pagecheckerboard="0"
     inkscape:deskcolor="#d1d1d1"
     showgrid="false"
     inkscape:zoom="7.375"
     inkscape:cx="15.932203"
     inkscape:cy="16"
     inkscape:window-width="705"
     inkscape:window-height="480"
     inkscape:window-x="1440"
     inkscape:window-y="25"
     inkscape:window-maximized="0"
     inkscape:current-layer="svg1840" />
  <g
     fill="none"
     fill-rule="evenodd"
     id="g1838">
    <path
       d="M0 0h32v32H0z"
       fill="#fff"
       id="path1824" />
    <g
       fill-rule="nonzero"
       id="g1836">
      <path
         d="M26.834 16h-2.32a.465.465 0 0 1-.467-.464c0-.258.21-.485.468-.485h3.53v-1.747h-3.53a2.242 2.242 0 0 0-2.236 2.24 2.242 2.242 0 0 0 2.236 2.24h2.288c.258 0 .467.206.467.464s-.21.448-.467.448h-4.907c-.416.798-.821 1.481-1.643 1.823h6.581c1.212-.018 2.203-1.046 2.203-2.268 0-1.222-.991-2.233-2.203-2.251"
         fill="#5f6360"
         id="path1826" />
      <path
         d="M17.943 13.304c-1.966 0-3.567 1.615-3.567 3.6v7.488h1.78V20.52h1.783c1.966 0 3.561-1.637 3.561-3.622 0-1.984-1.591-3.593-3.557-3.593zm0 5.392h-1.788v-1.799c0-1.005.798-1.822 1.788-1.822.989 0 1.794.817 1.794 1.822s-.805 1.8-1.794 1.8z"
         fill="#5f6360"
         id="path1828" />
      <g
         fill="#a41760"
         id="g1834">
        <path
           d="M8.741 20.519c-1.683 0-3.098-1.203-3.48-2.774 0 0-.111-.519-.111-.861 0-.342.105-.867.105-.867a3.592 3.592 0 0 1 3.478-2.734 3.603 3.603 0 0 1 3.598 3.592v.872H7.08c.31.607.937.95 1.66.95h4.72l.006-5.14c0-.766-.625-1.392-1.39-1.392H5.39c-.764 0-1.389.607-1.389 1.374v6.707c0 .766.625 1.412 1.389 1.412h6.689c.685 0 1.257-.493 1.368-1.139z"
           id="path1830" />
        <path
           d="M8.733 14.988c-.72 0-1.346.442-1.657 1.012h3.315c-.31-.57-.937-1.012-1.658-1.012m3.03-5.005c0-1.637-1.357-2.964-3.03-2.964-1.646 0-2.985 1.284-3.029 2.883v.911c0 .107.087.212.195.212h1.115c.11 0 .205-.105.205-.212v-.83c0-.817.679-1.482 1.514-1.482.836 0 1.515.665 1.515 1.482v.83c0 .107.088.212.197.212h1.115c.11 0 .203-.105.203-.212z"
           id="path1832" />
      </g>
    </g>
  </g>
</svg>
