<?xml version="1.0" encoding="UTF-8" standalone="no"?>
<svg
   enable-background="new 0 0 32 20"
   height="32"
   overflow="visible"
   viewBox="0 0 32 32"
   width="32"
   xml:space="preserve"
   version="1.1"
   id="svg555"
   sodipodi:docname="mastercard.svg"
   inkscape:version="1.2 (dc2aeda, 2022-05-15)"
   xmlns:inkscape="http://www.inkscape.org/namespaces/inkscape"
   xmlns:sodipodi="http://sodipodi.sourceforge.net/DTD/sodipodi-0.dtd"
   xmlns="http://www.w3.org/2000/svg"
   xmlns:svg="http://www.w3.org/2000/svg">
  <defs
   id="defs559" />
  <sodipodi:namedview
   id="namedview557"
   pagecolor="#ffffff"
   bordercolor="#999999"
   borderopacity="1"
   inkscape:showpageshadow="0"
   inkscape:pageopacity="0"
   inkscape:pagecheckerboard="0"
   inkscape:deskcolor="#d1d1d1"
   showgrid="false"
   inkscape:zoom="11.8"
   inkscape:cx="3.5169492"
   inkscape:cy="10.084746"
   inkscape:window-width="1309"
   inkscape:window-height="456"
   inkscape:window-x="1440"
   inkscape:window-y="25"
   inkscape:window-maximized="0"
   inkscape:current-layer="svg555" />
  <g
   id="g553"
   transform="translate(0,6)">
    <g
   id="Master_Card_1_">
      <g
   id="Master_Card">
        <circle
   cx="10"
   cy="10"
   fill="#f93232"
   id="Red_x5F_Circle"
   r="10" />
        <path
   d="M 22,0 C 19.754,0 17.688,0.75 16.02,2 H 16 V 2.014 C 15.604,2.312 15.24,2.648 14.893,3 h 2.214 c 0.308,0.313 0.592,0.648 0.855,1 H 14.03 c -0.242,0.319 -0.464,0.652 -0.667,1 h 5.264 c 0.188,0.324 0.365,0.654 0.518,1 h -6.291 c -0.143,0.325 -0.269,0.658 -0.377,1 h 7.044 c 0.104,0.326 0.186,0.661 0.258,1 H 12.216 C 12.149,8.328 12.093,8.66 12.059,9 H 19.94 C 19.979,9.328 20,9.661 20,10 h -8 c 0,0.339 0.027,0.67 0.06,1 h 7.882 c -0.038,0.339 -0.093,0.672 -0.162,1 h -7.563 c 0.069,0.341 0.158,0.673 0.261,1 h 7.044 c -0.108,0.342 -0.234,0.675 -0.377,1 h -6.291 c 0.151,0.344 0.321,0.678 0.509,1 h 5.264 c -0.202,0.348 -0.427,0.681 -0.669,1 H 14.03 c 0.266,0.352 0.553,0.687 0.862,1 h 2.215 C 16.759,17.353 16.396,17.688 16,17.986 17.672,19.245 19.745,20 22,20 27.523,20 32,15.522 32,10 32,4.478 27.523,0 22,0 Z"
   fill="#fed049"
   id="Yellow_x5F_Circle" />
      </g>
    </g>
  </g>
</svg>
