<?xml version="1.0" encoding="UTF-8" standalone="no"?>
<svg
   enable-background="new 0 0 24 24"
   id="Layer_1"
   version="1.1"
   viewBox="0 0 32 32"
   xml:space="preserve"
   sodipodi:docname="paypal.svg"
   width="32"
   height="32"
   inkscape:version="1.2 (dc2aeda, 2022-05-15)"
   xmlns:inkscape="http://www.inkscape.org/namespaces/inkscape"
   xmlns:sodipodi="http://sodipodi.sourceforge.net/DTD/sodipodi-0.dtd"
   xmlns="http://www.w3.org/2000/svg"
   xmlns:svg="http://www.w3.org/2000/svg">
  <defs
   id="defs641" />
  <sodipodi:namedview
   id="namedview639"
   pagecolor="#ffffff"
   bordercolor="#999999"
   borderopacity="1"
   inkscape:showpageshadow="0"
   inkscape:pageopacity="0"
   inkscape:pagecheckerboard="0"
   inkscape:deskcolor="#d1d1d1"
   showgrid="false"
   inkscape:zoom="9.8333333"
   inkscape:cx="-3.1016949"
   inkscape:cy="12"
   inkscape:window-width="1309"
   inkscape:window-height="456"
   inkscape:window-x="1440"
   inkscape:window-y="25"
   inkscape:window-maximized="0"
   inkscape:current-layer="Layer_1" />
  <g
   id="g606"
   transform="matrix(1.3050847,0,0,1.3050847,0.33898357,0.33898386)">
    <path
   d="m 17.500954,5.0000005 h -7.500489 c -0.5668941,0 -1.2856441,0.2451172 -1.4916988,1.4130859 C 8.4833755,6.5551763 6.001442,22.636719 6.001442,23 c 0,0.570312 0.4296875,1 0.9995117,1 h 5.5004883 c 0.244629,0 0.453125,-0.176758 0.493164,-0.417969 L 13.924782,18 h 1.576172 c 4.134765,0 7.499023,-3.364258 7.499023,-7.5 0,-3.0327144 -2.466797,-5.4999995 -5.499023,-5.4999995 z"
   fill="#009ada"
   id="path585" />
    <path
   d="M 12.611733,23.75 H 6.9411392 C 6.5251236,23.75 6.1883316,23.5177 6.0344009,23.172119 6.114418,23.650391 6.492897,24 7.0009537,24 h 5.5004883 c 0.244629,0 0.453125,-0.176758 0.493164,-0.417969 l 0.0046,-0.02759 C 12.906959,23.671509 12.76963,23.75 12.611733,23.75 Z"
   opacity="0.1"
   id="path587" />
    <path
   d="M 15.500954,17.75 H 13.966781 L 13.923507,18 h 1.577447 c 4.134765,0 7.499023,-3.364258 7.499023,-7.5 0,-0.04224 -0.0054,-0.08307 -0.0063,-0.125061 C 22.926002,14.452637 19.593544,17.75 15.500954,17.75 Z"
   opacity="0.1"
   id="path589" />
    <path
   d="M 15.452818,-4e-7 5.501442,4e-7 C 4.8080826,4e-7 4.2250748,0.5415043 4.0160904,1.3793949 3.986305,1.5000004 1.00193,19.41748 1.0009534,20.087402 0.9975354,20.279297 0.9926526,20.541992 1.2035901,20.756836 1.4135511,20.970703 1.7114027,21 2.00193,21 H 6.2826793 L 7.3437269,14 H 12.501442 C 17.19601,14 21.013551,10.173911 21.000421,5.4758568 20.991943,2.44157 18.487116,-7e-7 15.452818,-4e-7 Z"
   fill="#273691"
   id="path591" />
    <path
   d="M 5.4499283,0.2500004 H 15.494484 c 2.404297,0 4.473206,1.5075073 5.258362,3.6223145 C 20.050331,1.6257939 17.928444,4e-7 15.452797,4e-7 H 5.501442 c -0.6933594,0 -1.2763672,0.5415039 -1.4853516,1.3793945 -0.00146,0.00586 -0.011902,0.065674 -0.026673,0.1520386 C 4.2219009,0.754456 4.7801895,0.2500004 5.4499283,0.2500004 Z"
   fill="#ffffff"
   opacity="0.2"
   id="path593" />
    <path
   d="m 1.8705823,20.75 c -0.2905273,0 -0.5883789,-0.0293 -0.7983398,-0.243164 -0.015137,-0.01544 -0.02179,-0.03247 -0.03479,-0.04834 0.027954,0.10199 0.074219,0.204712 0.1661377,0.29834 C 1.4135511,20.970703 1.7114027,21 2.00193,21 h 4.280762 l 0.037903,-0.25 z"
   opacity="0.1"
   id="path595" />
    <path
   d="m 7.3437271,14 h 5.1577149 c 4.439209,0 8.089294,-3.422424 8.462707,-7.7669673 C 20.017921,5.4633183 18.812904,5.0000005 17.500954,5.0000005 h -7.500489 c -0.5668942,0 -1.2856442,0.2451172 -1.4916989,1.4130859 z"
   opacity="0.2"
   id="path597" />
    <linearGradient
   gradientUnits="userSpaceOnUse"
   id="SVGID_1_"
   x1="1.2849817"
   x2="21.048635"
   y1="7.1307149"
   y2="16.346659">
      <stop
   offset="0"
   style="stop-color:#FFFFFF;stop-opacity:0.2"
   id="stop599" />
      <stop
   offset="1"
   style="stop-color:#FFFFFF;stop-opacity:0"
   id="stop601" />
    </linearGradient>
    <path
   d="M 20.96415,6.2330327 C 20.98563,5.9830937 21.00114,5.7313848 21.0004,5.4758306 20.99192,2.4415288 18.487099,5e-7 15.452797,5e-7 H 5.501442 C 4.8080826,5e-7 4.2250748,0.5415044 4.0160904,1.379395 3.986305,1.5000004 1.00193,19.41748 1.0009534,20.087402 0.9975354,20.279297 0.9926526,20.541992 1.2035901,20.756836 1.4135511,20.970703 1.7114027,21 2.00193,21 h 4.2799683 c -0.1713257,1.157593 -0.2804565,1.924194 -0.2804565,2 0,0.570312 0.4296875,1 0.9995117,1 h 5.5004885 c 0.244629,0 0.453125,-0.176758 0.493164,-0.417969 L 13.924782,18 h 1.576172 c 4.134765,0 7.499023,-3.364258 7.499023,-7.5 0,-1.7205811 -0.795044,-3.25769 -2.035827,-4.2669673 z"
   fill="url(#SVGID_1_)"
   id="path604"
   style="fill:url(#SVGID_1_)" />
  </g>
  <g
   id="g608"
   transform="matrix(1.3050847,0,0,1.3050847,-0.30509177,1.220339e-7)" />
  <g
   id="g610"
   transform="matrix(1.3050847,0,0,1.3050847,-0.30509177,1.220339e-7)" />
  <g
   id="g612"
   transform="matrix(1.3050847,0,0,1.3050847,-0.30509177,1.220339e-7)" />
  <g
   id="g614"
   transform="matrix(1.3050847,0,0,1.3050847,-0.30509177,1.220339e-7)" />
  <g
   id="g616"
   transform="matrix(1.3050847,0,0,1.3050847,-0.30509177,1.220339e-7)" />
  <g
   id="g618"
   transform="matrix(1.3050847,0,0,1.3050847,-0.30509177,1.220339e-7)" />
  <g
   id="g620"
   transform="matrix(1.3050847,0,0,1.3050847,-0.30509177,1.220339e-7)" />
  <g
   id="g622"
   transform="matrix(1.3050847,0,0,1.3050847,-0.30509177,1.220339e-7)" />
  <g
   id="g624"
   transform="matrix(1.3050847,0,0,1.3050847,-0.30509177,1.220339e-7)" />
  <g
   id="g626"
   transform="matrix(1.3050847,0,0,1.3050847,-0.30509177,1.220339e-7)" />
  <g
   id="g628"
   transform="matrix(1.3050847,0,0,1.3050847,-0.30509177,1.220339e-7)" />
  <g
   id="g630"
   transform="matrix(1.3050847,0,0,1.3050847,-0.30509177,1.220339e-7)" />
  <g
   id="g632"
   transform="matrix(1.3050847,0,0,1.3050847,-0.30509177,1.220339e-7)" />
  <g
   id="g634"
   transform="matrix(1.3050847,0,0,1.3050847,-0.30509177,1.220339e-7)" />
  <g
   id="g636"
   transform="matrix(1.3050847,0,0,1.3050847,-0.30509177,1.220339e-7)" />
</svg>
