<?xml version="1.0" encoding="UTF-8" standalone="no"?>
<svg
   id="Layer_1"
   version="1.1"
   viewBox="0 0 32 32"
   xml:space="preserve"
   sodipodi:docname="telegram.svg"
   width="32"
   height="32"
   inkscape:version="1.2 (dc2aeda, 2022-05-15)"
   xmlns:inkscape="http://www.inkscape.org/namespaces/inkscape"
   xmlns:sodipodi="http://sodipodi.sourceforge.net/DTD/sodipodi-0.dtd"
   xmlns="http://www.w3.org/2000/svg"
   xmlns:svg="http://www.w3.org/2000/svg"><defs
     id="defs31" /><sodipodi:namedview
     id="namedview29"
     pagecolor="#ffffff"
     bordercolor="#999999"
     borderopacity="1"
     inkscape:showpageshadow="0"
     inkscape:pageopacity="0"
     inkscape:pagecheckerboard="0"
     inkscape:deskcolor="#d1d1d1"
     showgrid="false"
     inkscape:zoom="4.8127163"
     inkscape:cx="38.855397"
     inkscape:cy="29.816842"
     inkscape:window-width="1440"
     inkscape:window-height="847"
     inkscape:window-x="0"
     inkscape:window-y="25"
     inkscape:window-maximized="1"
     inkscape:current-layer="Layer_1" /><style
     type="text/css"
     id="style9">
	.st0{fill:url(#SVGID_1_);}
	.st1{fill:#FFFFFF;}
	.st2{fill:#D2E4F0;}
	.st3{fill:#B5CFE4;}
</style><g
     id="g26"
     transform="scale(0.0625)"><linearGradient
       gradientUnits="userSpaceOnUse"
       id="SVGID_1_"
       x1="256"
       x2="256"
       y1="0"
       y2="510.1322"><stop
         offset="0"
         style="stop-color:#41BCE7"
         id="stop11" /><stop
         offset="1"
         style="stop-color:#22A6DC"
         id="stop13" /></linearGradient><circle
       class="st0"
       cx="256"
       cy="256"
       r="256"
       id="circle16"
       style="fill:url(#SVGID_1_)" /><g
       id="g24"><path
         class="st1"
         d="m 380.6,147.3 -45.7,230.5 c 0,0 -6.4,16 -24,8.3 L 205.4,305.2 167,286.7 102.4,265 c 0,0 -9.9,-3.5 -10.9,-11.2 -1,-7.7 11.2,-11.8 11.2,-11.8 L 359.5,141.3 c 0,-0.1 21.1,-9.4 21.1,6 z"
         id="path18" /><path
         class="st2"
         d="m 197.2,375.2 c 0,0 -3.1,-0.3 -6.9,-12.4 C 186.5,350.7 167,286.7 167,286.7 l 155.1,-98.5 c 0,0 9,-5.4 8.6,0 0,0 1.6,1 -3.2,5.4 -4.8,4.5 -121.8,109.7 -121.8,109.7"
         id="path20" /><path
         class="st3"
         d="m 245.8,336.2 -41.7,38.1 c 0,0 -3.3,2.5 -6.8,0.9 l 8,-70.7"
         id="path22" /></g></g></svg>
