<?xml version="1.0" encoding="UTF-8" standalone="no"?>
<svg
   height="32"
   style="clip-rule:evenodd;fill-rule:evenodd;stroke-linejoin:round;stroke-miterlimit:1.41421"
   version="1.1"
   viewBox="0 0 32 32"
   width="32"
   xml:space="preserve"
   id="svg479"
   sodipodi:docname="unionpay.svg"
   inkscape:version="1.2 (dc2aeda, 2022-05-15)"
   xmlns:inkscape="http://www.inkscape.org/namespaces/inkscape"
   xmlns:sodipodi="http://sodipodi.sourceforge.net/DTD/sodipodi-0.dtd"
   xmlns="http://www.w3.org/2000/svg"
   xmlns:svg="http://www.w3.org/2000/svg"><defs
     id="defs483" /><sodipodi:namedview
     id="namedview481"
     pagecolor="#ffffff"
     bordercolor="#999999"
     borderopacity="1"
     inkscape:showpageshadow="0"
     inkscape:pageopacity="0"
     inkscape:pagecheckerboard="0"
     inkscape:deskcolor="#d1d1d1"
     showgrid="false"
     inkscape:zoom="7.2834836"
     inkscape:cx="39.266925"
     inkscape:cy="40.571246"
     inkscape:window-width="1440"
     inkscape:window-height="847"
     inkscape:window-x="0"
     inkscape:window-y="25"
     inkscape:window-maximized="1"
     inkscape:current-layer="svg479" /><g
     id="g506"
     transform="matrix(0.02875177,0,0,0.02875177,-0.05013645,5.0733603)"><g
       transform="scale(4.16667)"
       id="g477"><path
         d="m 62.002,0.416 c -15.605,0 -30.09,11.795 -33.693,27.434 0,0.004 -27.496,119.509 -27.496,119.509 -2.034,8.805 -0.209,17.675 5,24.34 C 10.939,178.242 18.855,182 27.521,182 h 178.418 c 15.598,0 30.086,-11.79 33.706,-27.42 0,-0.018 27.492,-119.523 27.492,-119.523 2.036,-8.804 0.209,-17.691 -5.004,-24.344 C 257.002,4.17 249.096,0.416 240.429,0.416 Z"
         style="fill:#ffffff;fill-rule:nonzero"
         id="path437" /><path
         d="m 64.505,19.785 h 57.003 c 7.96,0 12.908,6.477 11.047,14.459 l -26.536,113.929 c -1.869,7.981 -9.835,14.454 -17.792,14.454 H 31.224 c -7.966,0 -12.911,-6.473 -11.043,-14.454 L 46.722,34.244 c 1.86,-7.982 9.817,-14.459 17.783,-14.459 z"
         style="fill:#ed1c24;fill-rule:nonzero"
         id="path439" /><path
         d="m 116.778,19.785 h 56.999 c 7.965,0 12.912,6.477 11.043,14.459 l -26.541,113.929 c -1.869,7.981 -9.826,14.454 -17.8,14.454 h -56.99 c -7.974,0 -12.912,-6.473 -11.044,-14.454 L 98.979,34.244 c 1.868,-7.982 9.834,-14.459 17.799,-14.459 z"
         style="fill:#00569e;fill-rule:nonzero"
         id="path441" /><path
         d="m 179.732,19.785 h 56.994 c 7.966,0 12.912,6.477 11.044,14.459 l -26.532,113.929 c -1.869,7.981 -9.834,14.454 -17.801,14.454 h -57.002 c -7.966,0 -12.912,-6.473 -11.043,-14.454 L 161.924,34.244 c 1.868,-7.982 9.834,-14.459 17.808,-14.459 z"
         style="fill:#00898e;fill-rule:nonzero"
         id="path443" /><path
         d="m 188.223,103.898 -5.38,22.981 h 1.86 l -1.125,4.77 h -1.861 l -0.342,1.456 h -6.606 l 0.342,-1.456 h -13.429 l 1.051,-4.399 1.368,-0.021 5.463,-23.331 1.085,-4.716 h 6.747 l -0.533,2.39 c 0,0 1.701,-1.305 3.369,-1.743 1.677,-0.438 11.444,-0.609 11.444,-0.609 l -1.134,4.678 z m -11.886,0 -1.377,5.881 c 0,0 1.936,-0.909 3.012,-1.201 1.084,-0.288 2.736,-0.4 2.736,-0.4 l 0.993,-4.28 z m -2.068,8.809 -1.427,6.094 c 0,0 1.968,-1.047 3.054,-1.34 1.076,-0.291 2.734,-0.475 2.734,-0.475 l 1.019,-4.279 z m -3.328,14.242 h 5.371 l 1.21,-5.176 h -5.372 z"
         style="fill:#ffffff"
         id="path445" /><path
         d="m 192.043,99.229 h 7.19 l 0.084,2.676 c -0.042,0.434 0.342,0.652 1.184,0.667 h 1.209 l -1.084,4.43 h -3.886 c -3.37,0.242 -4.647,-1.21 -4.563,-2.832 z"
         style="fill:#ffffff"
         id="path447" /><path
         d="m 193.261,120.23 h -6.865 l 0.918,-3.945 h 7.832 l 0.876,-3.611 h -7.74 l 1.042,-4.434 h 21.537 l -1.051,4.434 h -7.232 l -0.875,3.611 h 7.24 l -0.926,3.945 h -7.824 l -1.293,1.665 h 3.178 l 1.126,4.97 c 0.09,0.489 0.141,0.811 0.308,1.014 0.167,0.176 1.134,0.264 1.685,0.264 h 0.96 l -1.134,4.849 h -2.445 c -0.375,0 -0.942,-0.016 -1.709,-0.084 -0.744,-0.057 -1.301,-0.483 -1.811,-0.717 -0.467,-0.216 -1.176,-0.771 -1.401,-1.693 l -1.093,-4.954 -3.219,4.895 c -1.043,1.519 -2.494,2.696 -5.072,2.696 h -5.004 l 1.009,-4.297 h 1.919 c 0.55,0 1.033,-0.224 1.375,-0.403 0.351,-0.164 0.66,-0.351 1.002,-0.873 z"
         style="fill:#ffffff"
         id="path449" /><path
         d="m 117.42,109.437 h 18.155 l -1.042,4.338 h -7.291 l -0.888,3.695 h 7.411 l -1.076,4.487 h -7.412 l -1.438,5.984 c -0.167,0.673 1.814,0.764 2.532,0.764 l 3.681,-0.492 -1.183,4.93 h -8.379 c -0.668,0 -1.18,-0.076 -1.918,-0.259 -0.718,-0.171 -1.047,-0.492 -1.393,-0.976 -0.33,-0.467 -0.822,-0.876 -0.572,-1.917 l 1.911,-7.958 h -4.13 l 1.097,-4.563 h 4.138 l 0.879,-3.695 h -4.12 z"
         style="fill:#ffffff"
         id="path451" /><path
         d="m 129.169,101.655 h 7.457 l -1.085,4.517 h -10.18 l -1.051,0.972 c -0.43,0.45 -0.617,0.262 -1.205,0.584 -0.567,0.3 -1.739,0.867 -3.308,0.867 h -3.26 l 1.046,-4.355 h 0.977 c 0.833,0 1.397,-0.074 1.676,-0.261 0.3,-0.188 0.638,-0.66 1.005,-1.407 L 122.9,99.17 h 7.42 z"
         style="fill:#ffffff"
         id="path453" /><path
         d="m 139.662,99.204 h 6.356 l -0.734,3.202 c 0,0 1.91,-1.605 3.286,-2.143 1.368,-0.543 4.504,-1.001 4.504,-1.001 l 10.259,-0.066 -2.769,11.659 c -0.475,1.995 -1.076,3.287 -1.459,3.883 -0.367,0.584 -0.775,1.106 -1.644,1.598 -0.85,0.45 -1.618,0.709 -2.335,0.783 -0.692,0.059 -1.726,0.08 -3.162,0.096 h -9.892 l -2.21,9.23 c -0.225,0.913 -0.318,1.342 -0.134,1.584 0.168,0.225 0.518,0.477 0.984,0.477 l 4.33,-0.418 -1.176,5.058 h -4.896 c -1.543,0 -2.686,-0.02 -3.47,-0.095 -0.759,-0.059 -1.543,0 -2.085,-0.418 -0.493,-0.391 -1.21,-0.908 -1.227,-1.45 0.017,-0.505 0.167,-1.334 0.417,-2.47 z m 14.213,11.794 h -10.402 l -0.509,2.093 h 9.009 c 1.06,-0.109 1.284,0.024 1.368,-0.013 z m -9.952,-1.894 c 0,0 1.91,-1.86 5.365,-2.469 0.784,-0.142 5.747,-0.1 5.747,-0.1 l 0.591,-2.494 h -10.493 z"
         style="fill:#ffffff"
         id="path455" /><path
         d="m 159.338,118.033 -0.4,2.807 c -0.218,0.863 -0.376,1.526 -1.001,2.101 -0.659,0.592 -1.443,1.202 -3.345,1.202 l -3.503,0.137 0.15,3.161 c 0.026,0.918 0.251,0.823 0.401,0.967 0.166,0.154 0.324,0.223 0.484,0.264 l 1.117,-0.041 3.337,-0.205 -1.094,4.641 h -3.853 c -2.719,0 -4.721,-0.083 -5.413,-0.575 -0.676,-0.446 -0.801,-0.959 -0.834,-1.822 l -0.517,-12.358 h 6.164 l 0.074,2.528 h 1.477 c 0.517,0 0.851,-0.051 1.06,-0.184 0.175,-0.134 0.291,-0.342 0.375,-0.658 l 0.467,-1.965 z"
         style="fill:#ffffff"
         id="path457" /><path
         d="m 71.252,56.16 c -0.216,1.021 -4.178,19.263 -4.187,19.271 -0.851,3.679 -1.468,6.332 -3.561,8.033 -1.218,0.976 -2.594,1.455 -4.212,1.455 -2.595,0 -4.113,-1.296 -4.379,-3.745 l -0.051,-0.83 c 0,0 0.793,-4.946 0.801,-4.971 0,0 4.162,-16.632 4.896,-18.842 0.025,-0.117 0.042,-0.183 0.067,-0.259 -8.083,0.101 -9.525,0.025 -9.625,-0.117 -0.042,0.176 -0.259,1.21 -0.259,1.21 l -4.237,18.755 -0.367,1.588 -0.693,5.189 c 0,1.547 0.301,2.81 0.91,3.862 1.926,3.386 7.44,3.895 10.551,3.895 4.012,0 7.774,-0.876 10.326,-2.406 4.404,-2.624 5.572,-6.719 6.606,-10.331 l 0.476,-1.86 c 0,0 4.278,-17.283 5.013,-19.53 0.025,-0.121 0.041,-0.179 0.058,-0.255 -5.847,0.088 -7.582,0.017 -8.133,-0.112 z"
         style="fill:#ffffff;fill-rule:nonzero"
         id="path459" /><path
         d="m 94.908,90.462 c -2.878,-0.033 -3.87,-0.033 -7.223,0.117 l -0.134,-0.225 c 0.292,-1.294 0.617,-2.544 0.909,-3.837 l 0.4,-1.731 c 0.626,-2.732 1.235,-5.864 1.302,-6.827 0.066,-0.584 0.25,-2.027 -1.393,-2.027 -0.701,0 -1.435,0.334 -2.169,0.667 -0.4,1.435 -1.218,5.497 -1.601,7.34 -0.826,3.908 -0.885,4.35 -1.251,6.265 l -0.243,0.258 c -2.952,-0.033 -3.979,-0.033 -7.373,0.117 l -0.159,-0.258 c 0.568,-2.328 1.135,-4.651 1.669,-6.974 1.434,-6.268 1.768,-8.666 2.16,-11.836 l 0.267,-0.224 c 3.32,-0.443 4.112,-0.551 7.715,-1.29 l 0.293,0.33 -0.543,2.027 c 0.601,-0.367 1.193,-0.734 1.819,-1.067 1.685,-0.81 3.569,-1.069 4.595,-1.069 1.569,0 3.295,0.443 4.012,2.252 0.693,1.618 0.234,3.612 -0.667,7.557 l -0.458,1.994 c -0.926,4.387 -1.077,5.197 -1.577,8.183 z"
         style="fill:#ffffff;fill-rule:nonzero"
         id="path461" /><path
         d="m 106.561,90.462 c -1.735,-0.016 -2.845,-0.025 -3.929,-0.012 -1.076,0.012 -2.127,0.053 -3.737,0.129 l -0.092,-0.133 -0.1,-0.125 c 0.434,-1.669 0.667,-2.253 0.893,-2.837 0.216,-0.588 0.425,-1.18 0.809,-2.861 0.5,-2.181 0.809,-3.732 1.034,-5.063 0.226,-1.321 0.367,-2.423 0.526,-3.694 l 0.133,-0.109 0.142,-0.117 c 1.718,-0.237 2.811,-0.396 3.92,-0.576 1.118,-0.179 2.252,-0.383 4.046,-0.717 l 0.116,0.3 c -0.334,1.364 -0.667,2.736 -0.992,4.101 -0.326,1.363 -0.642,2.735 -0.96,4.099 -0.65,2.886 -0.9,3.978 -1.05,4.721 -0.151,0.742 -0.193,1.143 -0.442,2.636 l -0.159,0.132 z"
         style="fill:#ffffff;fill-rule:nonzero"
         id="path463" /><path
         d="m 132.305,80.595 c 1.009,-4.417 0.242,-6.477 -0.751,-7.732 -1.502,-1.911 -4.124,-2.536 -6.869,-2.536 -1.643,0 -5.554,0.183 -8.616,3.02 -2.185,2.018 -3.219,4.778 -3.828,7.431 -0.617,2.69 -1.335,7.586 3.119,9.35 1.401,0.593 3.37,0.777 4.646,0.777 3.286,0 6.64,-0.918 9.154,-3.608 1.952,-2.135 2.837,-5.376 3.145,-6.702 z m -7.486,-0.33 c -0.167,0.738 -0.809,3.533 -1.701,4.709 -0.593,0.85 -1.335,1.367 -2.136,1.367 -0.225,0 -1.643,0 -1.677,-2.101 -0.016,-1.031 0.193,-2.098 0.459,-3.275 0.759,-3.315 1.652,-6.109 3.921,-6.109 1.793,0 1.901,2.06 1.134,5.409 z"
         style="fill:#ffffff;fill-rule:nonzero"
         id="path465" /><path
         d="m 195.505,85.32 c -0.592,0.838 -1.985,1.355 -2.787,1.355 -0.224,0 -1.642,0 -1.676,-2.085 -0.016,-1.026 0.192,-2.086 0.459,-3.253 0.758,-3.287 1.651,-6.064 3.92,-6.064 1.477,0 2.194,1.448 1.995,3.804 -0.118,0.529 -0.218,1.008 -0.36,1.634 -0.242,1.027 -0.525,2.036 -0.775,3.057 -0.234,0.601 -0.485,1.168 -0.776,1.552 z m 11.344,-14.768 c -3.587,0.654 -4.529,0.801 -7.967,1.277 l -0.266,0.216 c -0.042,0.292 -0.075,0.559 -0.116,0.839 -0.535,-0.877 -1.286,-1.644 -2.495,-2.107 -1.535,-0.592 -5.137,0.184 -8.199,2.995 -2.185,2.01 -3.22,4.75 -3.828,7.381 -0.617,2.67 -1.335,7.532 3.119,9.284 1.401,0.585 2.695,0.759 3.971,0.692 1.367,-0.07 2.619,-0.788 3.795,-1.772 -0.11,0.417 -0.209,0.838 -0.318,1.255 l 0.201,0.26 c 3.211,-0.151 4.195,-0.151 7.657,-0.11 l 0.317,-0.259 c 0.5,-2.961 0.985,-5.846 2.303,-11.547 0.625,-2.707 1.283,-5.41 1.942,-8.112 z"
         style="fill:#ffffff;fill-rule:nonzero"
         id="path467" /><path
         d="m 151.89,90.462 c -2.878,-0.033 -3.862,-0.033 -7.223,0.117 l -0.134,-0.225 c 0.3,-1.294 0.617,-2.544 0.918,-3.837 l 0.392,-1.731 c 0.625,-2.732 1.235,-5.864 1.309,-6.827 0.058,-0.584 0.242,-2.027 -1.402,-2.027 -0.692,0 -1.425,0.334 -2.16,0.667 -0.399,1.435 -1.217,5.497 -1.609,7.34 -0.817,3.908 -0.885,4.35 -1.251,6.265 l -0.242,0.258 c -2.946,-0.033 -3.971,-0.033 -7.366,0.117 l -0.158,-0.258 c 0.567,-2.328 1.134,-4.651 1.668,-6.974 1.435,-6.268 1.76,-8.666 2.16,-11.836 l 0.267,-0.224 c 3.312,-0.443 4.112,-0.551 7.708,-1.29 l 0.291,0.33 -0.533,2.027 c 0.592,-0.367 1.192,-0.734 1.809,-1.067 1.685,-0.81 3.571,-1.069 4.596,-1.069 1.569,0 3.296,0.443 4.021,2.252 0.683,1.618 0.224,3.612 -0.676,7.557 l -0.45,1.994 c -0.935,4.387 -1.084,5.197 -1.585,8.183 z"
         style="fill:#ffffff;fill-rule:nonzero"
         id="path469" /><path
         d="m 179.84,66.849 c -0.516,2.276 -1.976,4.195 -3.886,5.138 -1.585,0.788 -3.496,0.855 -5.48,0.855 h -1.293 l 0.116,-0.521 c 0,0 2.353,-10.268 2.344,-10.235 l 0.067,-0.521 0.05,-0.413 0.935,0.092 c 0,0 4.862,0.433 4.987,0.458 1.918,0.734 2.728,2.652 2.16,5.147 z m -3.102,-10.727 c -0.008,0 -2.386,0.05 -2.386,0.05 -6.197,0.062 -8.683,0.046 -9.709,-0.083 -0.092,0.442 -0.259,1.255 -0.259,1.259 0,0 -2.211,10.293 -2.211,10.301 0,0 -5.312,21.888 -5.562,22.914 5.404,-0.076 7.632,-0.08 8.558,0.024 0.216,-1.034 1.476,-7.131 1.485,-7.144 0,0 1.075,-4.492 1.142,-4.633 0,0 0.326,-0.476 0.676,-0.659 h 0.484 c 4.663,0 9.942,0 14.071,-3.045 2.803,-2.068 4.729,-5.138 5.588,-8.875 0.217,-0.925 0.385,-2.018 0.385,-3.119 0,-1.41 -0.285,-2.841 -1.12,-3.97 -2.109,-2.932 -6.288,-2.97 -11.142,-3.02 z"
         style="fill:#ffffff;fill-rule:nonzero"
         id="path471" /><path
         d="m 109.705,72.871 c 1.894,-1.306 2.135,-3.137 0.525,-4.087 -1.609,-0.943 -4.445,-0.647 -6.347,0.659 -1.91,1.318 -2.135,3.148 -0.534,4.095 1.61,0.947 4.454,0.65 6.356,-0.667 z"
         style="fill:#ffffff;fill-rule:nonzero"
         id="path473" /><path
         d="m 230.728,70.519 -0.282,-0.326 c -3.529,0.73 -4.171,0.843 -7.416,1.277 l -0.259,0.22 c -0.008,0.055 -0.016,0.109 -0.024,0.163 l -0.017,-0.042 c -2.436,5.597 -2.353,4.388 -4.32,8.775 -0.008,-0.2 -0.018,-0.35 -0.026,-0.538 l -0.492,-9.529 -0.301,-0.326 c -3.711,0.73 -3.802,0.843 -7.222,1.277 l -0.276,0.22 c -0.016,0.13 -0.033,0.255 -0.05,0.389 l 0.034,0.033 c 0.417,2.202 0.325,1.718 0.751,5.163 0.191,1.685 0.459,3.399 0.65,5.08 0.35,2.777 0.533,4.186 0.942,8.425 -2.31,3.836 -2.86,5.279 -5.063,8.64 v 0.008 l -1.576,2.494 c -0.175,0.267 -0.342,0.433 -0.559,0.517 -0.25,0.108 -0.592,0.151 -1.043,0.151 h -1.201 l -1,4.486 4.471,-0.066 c 2.593,-0.021 4.236,-1.301 5.129,-2.919 l 2.736,-4.774 z"
         style="fill:#ffffff"
         id="path475" /></g></g></svg>
