<?xml version="1.0" encoding="UTF-8" standalone="no"?>
<svg
   height="32"
   version="1.1"
   viewBox="0 0 32 32"
   width="32"
   xml:space="preserve"
   id="svg253"
   sodipodi:docname="visa.svg"
   inkscape:version="1.2 (dc2aeda, 2022-05-15)"
   xmlns:inkscape="http://www.inkscape.org/namespaces/inkscape"
   xmlns:sodipodi="http://sodipodi.sourceforge.net/DTD/sodipodi-0.dtd"
   xmlns="http://www.w3.org/2000/svg"
   xmlns:svg="http://www.w3.org/2000/svg"><defs
     id="defs257" /><sodipodi:namedview
     id="namedview255"
     pagecolor="#ffffff"
     bordercolor="#999999"
     borderopacity="1"
     inkscape:showpageshadow="0"
     inkscape:pageopacity="0"
     inkscape:pagecheckerboard="0"
     inkscape:deskcolor="#d1d1d1"
     showgrid="false"
     inkscape:zoom="4.221004"
     inkscape:cx="11.845523"
     inkscape:cy="30.916815"
     inkscape:window-width="1440"
     inkscape:window-height="847"
     inkscape:window-x="0"
     inkscape:window-y="25"
     inkscape:window-maximized="1"
     inkscape:current-layer="svg253" /><g
     id="g321"
     transform="translate(-0.41016053,-0.66588033)"><g
       id="形状_1_3_"
       style="enable-background:new"
       transform="matrix(0.06226674,0,0,0.06226674,0.49904706,0.69449265)"><g
         id="形状_1"><g
           id="g243"><path
             d="m 211.328,184.445 -23.465,144.208 h 37.542 l 23.468,-144.208 z m -55.052,0 -35.794,99.185 -4.234,-21.358 0.003,0.007 -0.933,-4.787 c -4.332,-9.336 -14.365,-27.08 -33.31,-42.223 -5.601,-4.476 -11.247,-8.296 -16.705,-11.559 l 32.531,124.943 h 39.116 l 59.733,-144.208 z m 146.521,40.035 c 0,-16.304 36.563,-14.209 52.629,-5.356 l 5.357,-30.972 c 0,0 -16.534,-6.288 -33.768,-6.288 -18.632,0 -62.875,8.148 -62.875,47.739 0,37.26 51.928,37.723 51.928,57.285 0,19.562 -46.574,16.066 -61.944,3.726 l -5.586,32.373 c 0,0 16.763,8.148 42.382,8.148 25.616,0 64.272,-13.271 64.272,-49.37 0,-37.493 -52.395,-40.985 -52.395,-57.285 z m 153.2,-40.035 h -30.185 c -13.938,0 -17.332,10.747 -17.332,10.747 l -55.988,133.461 h 39.131 l 7.828,-21.419 h 47.728 l 4.403,21.419 h 34.472 z m -45.727,93.196 19.728,-53.966 11.098,53.966 z"
             style="clip-rule:evenodd;fill:#005bac;fill-rule:evenodd"
             id="path241" /></g></g></g><g
       id="形状_1_2_"
       style="enable-background:new"
       transform="matrix(0.06226674,0,0,0.06226674,0.49904706,0.69449265)"><g
         id="形状_1_1_"><g
           id="g249"><path
             d="m 104.132,198.022 c 0,0 -1.554,-13.015 -18.144,-13.015 H 25.715 l -0.706,2.446 c 0,0 28.972,5.906 56.767,28.033 26.562,21.148 35.227,47.51 35.227,47.51 z"
             style="clip-rule:evenodd;fill:#f6ac1d;fill-rule:evenodd"
             id="path247" /></g></g></g></g></svg>
