<?xml version="1.0" encoding="UTF-8" standalone="no"?>
<svg
   height="32"
   version="1.1"
   viewBox="0 0 32 32"
   width="32"
   id="svg368"
   sodipodi:docname="zcash.svg"
   inkscape:version="1.2 (dc2aeda, 2022-05-15)"
   xmlns:inkscape="http://www.inkscape.org/namespaces/inkscape"
   xmlns:sodipodi="http://sodipodi.sourceforge.net/DTD/sodipodi-0.dtd"
   xmlns="http://www.w3.org/2000/svg"
   xmlns:svg="http://www.w3.org/2000/svg">
  <sodipodi:namedview
     id="namedview370"
     pagecolor="#ffffff"
     bordercolor="#999999"
     borderopacity="1"
     inkscape:showpageshadow="0"
     inkscape:pageopacity="0"
     inkscape:pagecheckerboard="0"
     inkscape:deskcolor="#d1d1d1"
     showgrid="false"
     inkscape:zoom="4.0571975"
     inkscape:cx="79.611603"
     inkscape:cy="72.094099"
     inkscape:window-width="1440"
     inkscape:window-height="847"
     inkscape:window-x="0"
     inkscape:window-y="25"
     inkscape:window-maximized="1"
     inkscape:current-layer="svg368" />
  <title
     id="title349" />
  <desc
     id="desc351" />
  <defs
     id="defs358">
    <linearGradient
       id="linearGradient-1"
       x1="28"
       x2="228"
       y1="128"
       y2="128"
       gradientUnits="userSpaceOnUse">
      <stop
         offset="0%"
         stop-color="#CE913B"
         id="stop353" />
      <stop
         offset="100%"
         stop-color="#F2C45E"
         id="stop355" />
    </linearGradient>
  </defs>
  <g
     fill="none"
     fill-rule="evenodd"
     id="Classic"
     stroke="none"
     stroke-width="1"
     transform="scale(0.125)">
    <g
       id="Zcash"
       transform="translate(-3388,-1122)">
      <g
         transform="translate(3388,1122)"
         id="g364">
        <circle
           cx="128"
           cy="128"
           fill="#000000"
           id="Oval-6"
           r="128" />
        <circle
           cx="128"
           cy="128"
           fill="url(#linearGradient-1)"
           id="circle361"
           r="100"
           style="fill:url(#linearGradient-1)" />
        <path
           d="m 175.77939,159.85759 v 27.87018 h -34.14997 c 0.55576,7.97484 0.86136,15.36615 1.41712,23.31312 H 114.315 V 188.0056 H 80.165027 c 0,-9.11413 -1.139293,-18.20039 0.55576,-26.73089 0.861258,-4.55707 5.974084,-8.5306 9.11403,-12.50413 10.809083,-12.80974 21.618163,-25.31367 32.705073,-38.12351 4.27914,-4.83489 8.5306,-9.39196 13.3654,-14.782613 H 82.721337 V 67.994276 H 114.28722 V 44.681162 h 27.59225 v 22.757355 h 34.42801 c 0,9.392064 1.13919,18.478321 -0.55576,27.036694 -0.86136,4.557067 -5.97419,8.530499 -9.39207,12.504029 -10.80898,12.80974 -21.61806,25.31377 -32.70507,38.12351 -4.22349,5.08505 -8.47496,9.61424 -13.33762,14.75484 z"
           fill="#000000"
           id="Fill-4" />
      </g>
    </g>
  </g>
</svg>
