<?xml version="1.0" standalone="no"?>
<!DOCTYPE svg PUBLIC "-//W3C//DTD SVG 20010904//EN"
 "http://www.w3.org/TR/2001/REC-SVG-20010904/DTD/svg10.dtd">
<svg version="1.0" xmlns="http://www.w3.org/2000/svg"
 width="1024.000000pt" height="1024.000000pt" viewBox="0 0 1024.000000 1024.000000"
 preserveAspectRatio="xMidYMid meet">
<metadata>
Created by potrace 1.14, written by Peter Selinger 2001-2017
</metadata>
<g transform="translate(0.000000,1024.000000) scale(0.100000,-0.100000)"
fill="#000000" stroke="none">
<path d="M0 5120 l0 -5120 5120 0 5120 0 0 5120 0 5120 -5120 0 -5120 0 0
-5120z m5465 4130 c839 -78 1616 -478 2157 -1112 56 -65 103 -118 105 -118 2
0 54 13 116 30 226 59 507 96 652 84 224 -17 350 -84 411 -216 27 -58 29 -72
28 -178 -1 -144 -27 -238 -118 -425 -217 -442 -690 -949 -1187 -1271 -129 -84
-356 -201 -482 -249 l-99 -38 -146 46 c-708 223 -1170 190 -1617 -114 -164
-111 -267 -201 -686 -599 -312 -296 -516 -469 -781 -663 -66 -48 -128 -92
-137 -97 -14 -9 -13 -12 9 -30 53 -41 330 -202 440 -254 395 -187 756 -279
1155 -293 915 -32 1715 447 1919 1148 26 92 50 253 44 310 l-3 37 -125 -70
c-925 -514 -1797 -792 -2467 -787 l-148 1 65 15 c666 151 1270 355 1930 651
760 341 1479 767 1791 1059 l82 78 -6 -126 c-29 -543 -221 -1116 -604 -1808
-513 -925 -1408 -2073 -2410 -3091 l-193 -195 -217 220 c-654 661 -1325 1457
-1806 2142 -195 277 -440 661 -548 860 -26 48 -39 63 -56 63 -12 0 -84 -13
-160 -29 -230 -49 -346 -64 -508 -63 -120 0 -165 4 -228 21 -144 38 -258 116
-309 212 -20 38 -23 57 -22 149 0 86 5 120 28 190 201 617 1079 1506 1828
1854 l94 44 95 -40 c518 -216 1050 -200 1554 47 344 168 555 336 1110 885 444
439 518 503 642 550 l46 17 -103 58 c-1008 566 -2072 658 -2765 240 -318 -192
-553 -485 -675 -844 -32 -95 -80 -301 -80 -346 l0 -24 73 40 c206 116 624 307
882 404 610 230 1285 388 1645 384 63 0 60 -1 -125 -48 -576 -145 -1145 -368
-1815 -709 -612 -312 -1346 -766 -1713 -1059 -38 -30 -71 -52 -75 -49 -10 11
17 343 39 477 191 1180 1050 2147 2224 2504 190 58 460 110 660 128 93 8 488
6 590 -3z"/>
<path d="M8200 7794 c-69 -14 -240 -71 -253 -83 -4 -4 28 -77 72 -162 90 -175
136 -281 191 -445 21 -63 40 -116 43 -117 9 -4 136 155 192 238 102 154 145
264 145 371 0 103 -47 178 -127 202 -53 16 -181 14 -263 -4z"/>
<path d="M1960 5278 c-81 -96 -201 -276 -240 -361 -100 -221 -65 -394 89 -446
51 -17 185 -13 281 8 86 20 258 76 273 90 4 4 -22 62 -58 127 -82 150 -164
339 -224 516 -25 76 -49 138 -52 138 -4 0 -35 -33 -69 -72z"/>
</g>
</svg>
