<svg width="20" height="20" viewBox="0 0 20 20" fill="none" xmlns="http://www.w3.org/2000/svg">
<path d="M17.0418 16.4523L13.7865 13.197C14.7856 12.0576 15.3369 10.616 15.3369 9.08655C15.3369 7.41703 14.6867 5.84762 13.5063 4.6672C12.3258 3.48678 10.7564 2.83655 9.08691 2.83655C7.4174 2.83655 5.84798 3.48678 4.66756 4.6672C3.48714 5.84762 2.83691 7.41703 2.83691 9.08655C2.83691 10.7561 3.48714 12.3255 4.66756 13.5059C5.84798 14.6863 7.4174 15.3365 9.08691 15.3365C10.6164 15.3365 12.058 14.7853 13.1973 13.7862L16.4526 17.0415C16.534 17.1228 16.6406 17.1635 16.7472 17.1635C16.8538 17.1635 16.9604 17.1228 17.0418 17.0415C17.2046 16.8787 17.2046 16.615 17.0418 16.4523ZM5.25675 12.9167C4.23381 11.8936 3.67025 10.5333 3.67025 9.08655C3.67025 7.63981 4.23381 6.27954 5.25675 5.25639C6.27991 4.23344 7.64018 3.66988 9.08691 3.66988C10.5337 3.66988 11.8939 4.23344 12.9171 5.25639C13.94 6.27954 14.5036 7.63981 14.5036 9.08655C14.5036 10.5333 13.94 11.8936 12.9171 12.9167C11.8939 13.9397 10.5337 14.5032 9.08691 14.5032C7.64018 14.5032 6.27991 13.9397 5.25675 12.9167Z" fill="#006C35"/>
</svg>
