<?xml version="1.0" encoding="UTF-8" standalone="no"?>
<svg
   xmlns:dc="http://purl.org/dc/elements/1.1/"
   xmlns:cc="http://creativecommons.org/ns#"
   xmlns:rdf="http://www.w3.org/1999/02/22-rdf-syntax-ns#"
   xmlns:svg="http://www.w3.org/2000/svg"
   xmlns="http://www.w3.org/2000/svg"
   xmlns:sodipodi="http://sodipodi.sourceforge.net/DTD/sodipodi-0.dtd"
   xmlns:inkscape="http://www.inkscape.org/namespaces/inkscape"
   width="512"
   height="512"
   viewBox="0 0 135.46666 135.46667"
   version="1.1"
   id="svg889"
   inkscape:version="1.0.2 (e86c8708, 2021-01-15)"
   sodipodi:docname="inverted.svg"
   inkscape:export-filename="/Users/roman/Documents/OrganicMaps/Design/Logo/android.png"
   inkscape:export-xdpi="96"
   inkscape:export-ydpi="96">
  <defs
     id="defs883" />
  <sodipodi:namedview
     id="base"
     pagecolor="#ffffff"
     bordercolor="#666666"
     borderopacity="1.0"
     inkscape:pageopacity="0"
     inkscape:pageshadow="2"
     inkscape:zoom="0.7"
     inkscape:cx="190.46231"
     inkscape:cy="295.74731"
     inkscape:document-units="mm"
     inkscape:current-layer="pointer"
     inkscape:document-rotation="0"
     showgrid="false"
     units="px"
     inkscape:window-width="1920"
     inkscape:window-height="1027"
     inkscape:window-x="1440"
     inkscape:window-y="25"
     inkscape:window-maximized="1"
     showguides="true"
     inkscape:guide-bbox="true" />
  <metadata
     id="metadata886">
    <rdf:RDF>
      <cc:Work
         rdf:about="">
        <dc:format>image/svg+xml</dc:format>
        <dc:type
           rdf:resource="http://purl.org/dc/dcmitype/StillImage" />
        <dc:title></dc:title>
      </cc:Work>
    </rdf:RDF>
  </metadata>
  <g
     inkscape:label="Layer 1"
     inkscape:groupmode="layer"
     id="layer1">
    <g
       id="pointer"
       transform="matrix(0.29581165,0,0,0.29581165,21.74156,11.980233)">
      <path
         fill="#449f33"
         d="M 360.1364,35.289208 C 370.81037,64.377085 313.70517,135.09799 259.26954,153.24612 160.80472,118.28629 157.60296,176.99719 77.015315,232.77354 172.2784,300.29237 272.07801,247.71811 270.2096,181.26809 c -74.9824,44.0339 -121.94726,48.83705 -148.899,47.50356 90.72655,-18.41424 188.65773,-75.52408 209.17686,-99.54415 0.0189,1.06591 0.0292,2.13326 0.0292,3.20356 0,114.75482 -172.9136,285.01847 -172.9136,285.01847 0,0 -90.514234,-88.84871 -140.567445,-181.64113 -6.996749,-0.0975 -49.105188,15.59169 -64.63413,-5.4357 C -64.943664,206.8892 -0.63378377,128.1616 55.136635,104.67664 154.93479,151.11285 209.63796,30.753629 240.8587,24.081869 147.73158,-32.495747 55.670258,-9.2769205 45.26238,74.787528 97.029874,44.630827 160.53859,27.551531 189.89091,28.886467 107.43048,46.159164 12.974398,108.68145 -15.310667,132.4325 c 0,-95.508804 77.416428,-172.932031 172.913587,-172.932031 56.47416,0 106.62481,27.075299 138.17996,68.955562 0.002,-0.0027 56.34911,-18.7864929 64.35349,6.833177 z m -19.7456,8.538911 c -7.41694,-10.346451 -33.23599,1.737752 -33.23599,1.737752 3.61324,6.212233 6.85425,12.668766 9.68667,19.341988 2.87025,6.76338 5.32318,13.749233 7.32537,20.921222 0,0.0018 26.3643,-27.856198 16.22395,-42.000962 z M -28.425899,220.61082 c 8.017471,11.18117 35.925945,-1.88025 35.925945,-1.88025 -3.9084082,-6.71395 -7.40968984,-13.69398 -10.4718566,-20.9067 -3.102881,-7.31013 -5.7535613,-14.86023 -7.9185964,-22.61243 0,0 -28.495898,30.11017 -17.535492,45.39938 z"
         id="path860"
         style="fill:#006c35;fill-opacity:1;stroke-width:1.4541" />
    </g>
  </g>
</svg>
